<svg width="18" height="20" viewBox="0 0 18 20" fill="none" xmlns="http://www.w3.org/2000/svg">
<path d="M17.3333 20L12.9583 15.8334L13.4833 17.5H2.74996C2.19742 17.5 1.66752 17.2805 1.27682 16.8898C0.886119 16.4991 0.666626 15.9692 0.666626 15.4167V2.91671C0.666626 2.36417 0.886119 1.83427 1.27682 1.44357C1.66752 1.05287 2.19742 0.833374 2.74996 0.833374H15.25C15.8025 0.833374 16.3324 1.05287 16.7231 1.44357C17.1138 1.83427 17.3333 2.36417 17.3333 2.91671V20ZM8.99996 5.66671C6.76663 5.66671 5.19996 6.62504 5.19996 6.62504C6.05829 5.85837 7.55829 5.41671 7.55829 5.41671L7.41663 5.27504C6.00829 5.30004 4.73329 6.27504 4.73329 6.27504C3.29996 9.26671 3.39163 11.85 3.39163 11.85C4.55829 13.3584 6.29163 13.25 6.29163 13.25L6.88329 12.5C5.84163 12.275 5.18329 11.35 5.18329 11.35C5.18329 11.35 6.74996 12.4167 8.99996 12.4167C11.25 12.4167 12.8166 11.35 12.8166 11.35C12.8166 11.35 12.1583 12.275 11.1166 12.5L11.7083 13.25C11.7083 13.25 13.4416 13.3584 14.6083 11.85C14.6083 11.85 14.7 9.26671 13.2666 6.27504C13.2666 6.27504 11.9916 5.30004 10.5833 5.27504L10.4416 5.41671C10.4416 5.41671 11.9416 5.85837 12.8 6.62504C12.8 6.62504 11.2333 5.66671 8.99996 5.66671ZM7.27496 8.82504C7.81663 8.82504 8.25829 9.30004 8.24996 9.88337C8.24996 10.4584 7.81663 10.9417 7.27496 10.9417C6.74163 10.9417 6.30829 10.4584 6.30829 9.88337C6.30829 9.30004 6.73329 8.82504 7.27496 8.82504ZM10.75 8.82504C11.2916 8.82504 11.725 9.30004 11.725 9.88337C11.725 10.4584 11.2916 10.9417 10.75 10.9417C10.2166 10.9417 9.78329 10.4584 9.78329 9.88337C9.78329 9.30004 10.2083 8.82504 10.75 8.82504Z" fill="white"/>
</svg>
