<svg width="18" height="18" viewBox="0 0 18 18" fill="none" xmlns="http://www.w3.org/2000/svg">
<path d="M11.0833 11.8416C11.15 11.9166 11.15 12.075 11.0833 12.1666C10.475 12.75 9.34163 12.8 8.99996 12.8C8.67496 12.8 7.54163 12.75 6.94996 12.1666C6.86663 12.075 6.86663 11.9166 6.94996 11.8416C7.04163 11.7583 7.18329 11.7583 7.26663 11.8416C7.64996 12.225 8.44163 12.3333 8.99996 12.3333C9.57496 12.3333 10.3833 12.225 10.75 11.8416C10.8416 11.7583 10.9833 11.7583 11.0833 11.8416ZM7.95829 9.86663C7.95829 9.39163 7.56663 8.99996 7.09163 8.99996C6.61663 8.99996 6.22496 9.39163 6.22496 9.86663C6.22496 10.3416 6.61663 10.7416 7.09163 10.7333C7.56663 10.7333 7.95829 10.3416 7.95829 9.86663ZM10.9083 8.99996C10.4333 8.99996 10.0416 9.41663 10.0416 9.87496C10.0416 10.3333 10.4333 10.7416 10.9083 10.7416C11.3833 10.7416 11.775 10.3416 11.775 9.87496C11.775 9.41663 11.3833 8.99996 10.9083 8.99996ZM17.3333 8.99996C17.3333 13.5833 13.5833 17.3333 8.99996 17.3333C4.41663 17.3333 0.666626 13.5833 0.666626 8.99996C0.666626 4.41663 4.41663 0.666626 8.99996 0.666626C13.5833 0.666626 17.3333 4.41663 17.3333 8.99996ZM14.5583 8.99996C14.5583 8.32496 14 7.78329 13.35 7.78329C13.0166 7.78329 12.7166 7.91663 12.5 8.12496C11.6666 7.52496 10.525 7.14163 9.24996 7.09163L9.80829 4.48329L11.6166 4.87496C11.6333 5.33329 12.0166 5.69996 12.4833 5.69996C12.9583 5.69996 13.35 5.30829 13.35 4.83329C13.35 4.35829 12.9583 3.96663 12.4833 3.96663C12.1416 3.96663 11.8416 4.16663 11.7083 4.45829L9.68329 4.02496C9.62496 3.99996 9.56663 4.02496 9.52496 4.05829C9.47496 4.09163 9.44996 4.14163 9.44163 4.19996L8.82496 7.09996C7.53329 7.14163 6.36663 7.52496 5.51663 8.13329C5.29996 7.92496 4.99996 7.79996 4.67496 7.79996C3.99996 7.79996 3.45829 8.34163 3.45829 8.99996C3.45829 9.50829 3.75829 9.92496 4.17496 10.1166C4.15829 10.25 4.14996 10.35 4.14996 10.4833C4.14996 12.3333 6.32496 13.875 8.99996 13.875C11.6916 13.875 13.875 12.3583 13.875 10.4833C13.875 10.3666 13.8666 10.25 13.8416 10.1166C14.2583 9.92496 14.5583 9.49996 14.5583 8.99996Z" fill="white"/>
</svg>
